<svg width="269" height="307" viewBox="0 0 269 307" fill="none" xmlns="http://www.w3.org/2000/svg">
<g filter="url(#filter0_d_112_625)">
<rect x="35.1807" y="10" width="214.819" height="268" rx="12" fill="url(#paint0_linear_112_625)" shape-rendering="crispEdges"/>
<rect x="36.1807" y="11" width="212.819" height="266" rx="11" stroke="white" stroke-width="2" shape-rendering="crispEdges"/>
</g>
<path d="M102.713 236.375V221.83H107.798C108.812 221.83 109.647 222.005 110.306 222.355C110.964 222.701 111.454 223.167 111.776 223.754C112.098 224.337 112.259 224.983 112.259 225.693C112.259 226.318 112.147 226.834 111.925 227.241C111.707 227.649 111.418 227.971 111.058 228.207C110.703 228.444 110.317 228.619 109.901 228.733V228.875C110.346 228.903 110.793 229.06 111.243 229.344C111.693 229.628 112.069 230.035 112.372 230.565C112.675 231.096 112.827 231.744 112.827 232.511C112.827 233.241 112.661 233.896 112.33 234.479C111.998 235.061 111.475 235.523 110.76 235.864C110.045 236.205 109.115 236.375 107.969 236.375H102.713ZM104.475 234.812H107.969C109.12 234.812 109.936 234.59 110.419 234.145C110.907 233.695 111.151 233.151 111.151 232.511C111.151 232.019 111.025 231.564 110.774 231.148C110.523 230.726 110.166 230.39 109.702 230.139C109.238 229.884 108.689 229.756 108.054 229.756H104.475V234.812ZM104.475 228.222H107.742C108.272 228.222 108.75 228.117 109.176 227.909C109.607 227.701 109.948 227.407 110.199 227.028C110.455 226.65 110.583 226.205 110.583 225.693C110.583 225.054 110.36 224.512 109.915 224.067C109.47 223.617 108.764 223.392 107.798 223.392H104.475V228.222ZM117.704 236.631C117.013 236.631 116.385 236.5 115.822 236.24C115.258 235.975 114.811 235.594 114.48 235.097C114.148 234.595 113.982 233.989 113.982 233.278C113.982 232.653 114.106 232.147 114.352 231.759C114.598 231.366 114.927 231.058 115.339 230.835C115.751 230.613 116.205 230.447 116.703 230.338C117.205 230.224 117.709 230.134 118.215 230.068C118.878 229.983 119.416 229.919 119.828 229.876C120.244 229.829 120.547 229.751 120.737 229.642C120.931 229.533 121.028 229.344 121.028 229.074V229.017C121.028 228.316 120.836 227.772 120.453 227.384C120.074 226.995 119.499 226.801 118.727 226.801C117.927 226.801 117.299 226.976 116.845 227.327C116.39 227.677 116.071 228.051 115.886 228.449L114.295 227.881C114.579 227.218 114.958 226.702 115.431 226.332C115.91 225.958 116.43 225.698 116.994 225.551C117.562 225.4 118.121 225.324 118.67 225.324C119.02 225.324 119.423 225.366 119.877 225.452C120.337 225.532 120.779 225.7 121.205 225.956C121.636 226.212 121.994 226.598 122.278 227.114C122.562 227.63 122.704 228.321 122.704 229.188V236.375H121.028V234.898H120.943C120.829 235.134 120.64 235.388 120.374 235.658C120.109 235.928 119.757 236.157 119.316 236.347C118.876 236.536 118.339 236.631 117.704 236.631ZM117.96 235.125C118.623 235.125 119.181 234.995 119.636 234.734C120.095 234.474 120.441 234.138 120.673 233.726C120.91 233.314 121.028 232.881 121.028 232.426V230.892C120.957 230.977 120.801 231.055 120.559 231.126C120.322 231.193 120.048 231.252 119.735 231.304C119.428 231.351 119.127 231.394 118.833 231.432C118.544 231.465 118.31 231.493 118.13 231.517C117.695 231.574 117.287 231.666 116.909 231.794C116.535 231.917 116.231 232.104 115.999 232.355C115.772 232.601 115.659 232.937 115.659 233.364C115.659 233.946 115.874 234.386 116.305 234.685C116.74 234.978 117.292 235.125 117.96 235.125ZM129.195 236.602C128.172 236.602 127.292 236.361 126.553 235.878C125.814 235.395 125.246 234.73 124.849 233.882C124.451 233.035 124.252 232.066 124.252 230.977C124.252 229.869 124.456 228.892 124.863 228.044C125.275 227.192 125.848 226.527 126.582 226.048C127.32 225.565 128.182 225.324 129.167 225.324C129.934 225.324 130.625 225.466 131.241 225.75C131.856 226.034 132.36 226.432 132.753 226.943C133.146 227.455 133.39 228.051 133.485 228.733H131.809C131.681 228.236 131.397 227.795 130.957 227.412C130.521 227.024 129.934 226.83 129.195 226.83C128.542 226.83 127.969 227 127.476 227.341C126.989 227.677 126.608 228.153 126.333 228.768C126.063 229.379 125.928 230.097 125.928 230.92C125.928 231.763 126.061 232.497 126.326 233.122C126.596 233.747 126.975 234.232 127.462 234.578C127.955 234.924 128.532 235.097 129.195 235.097C129.631 235.097 130.026 235.021 130.381 234.869C130.736 234.718 131.037 234.5 131.283 234.216C131.529 233.932 131.705 233.591 131.809 233.193H133.485C133.39 233.837 133.156 234.417 132.782 234.933C132.412 235.445 131.922 235.852 131.312 236.155C130.706 236.453 130 236.602 129.195 236.602ZM136.498 232.398L136.469 230.324H136.81L141.583 225.466H143.657L138.572 230.608H138.43L136.498 232.398ZM134.935 236.375V221.83H136.611V236.375H134.935ZM141.867 236.375L137.606 230.977L138.799 229.812L143.998 236.375H141.867ZM150.146 229.358V230.92H143.783V229.358H150.146ZM156.669 236.602C155.618 236.602 154.711 236.37 153.949 235.906C153.191 235.438 152.607 234.784 152.195 233.946C151.788 233.103 151.584 232.123 151.584 231.006C151.584 229.888 151.788 228.903 152.195 228.051C152.607 227.194 153.18 226.527 153.914 226.048C154.652 225.565 155.514 225.324 156.499 225.324C157.067 225.324 157.628 225.419 158.182 225.608C158.736 225.797 159.24 226.105 159.695 226.531C160.149 226.953 160.512 227.511 160.781 228.207C161.051 228.903 161.186 229.76 161.186 230.778V231.489H152.777V230.04H159.482C159.482 229.424 159.359 228.875 159.112 228.392C158.871 227.909 158.525 227.528 158.075 227.249C157.63 226.969 157.105 226.83 156.499 226.83C155.831 226.83 155.254 226.995 154.766 227.327C154.283 227.653 153.911 228.08 153.651 228.605C153.39 229.131 153.26 229.694 153.26 230.295V231.261C153.26 232.085 153.402 232.784 153.686 233.357C153.975 233.925 154.375 234.358 154.887 234.656C155.398 234.95 155.992 235.097 156.669 235.097C157.11 235.097 157.507 235.035 157.862 234.912C158.222 234.784 158.532 234.595 158.793 234.344C159.053 234.088 159.254 233.771 159.397 233.392L161.016 233.847C160.845 234.396 160.559 234.879 160.156 235.295C159.754 235.707 159.257 236.029 158.665 236.261C158.073 236.489 157.408 236.602 156.669 236.602ZM164.412 229.812V236.375H162.736V225.466H164.355V227.17H164.497C164.753 226.616 165.141 226.171 165.662 225.835C166.183 225.494 166.855 225.324 167.679 225.324C168.418 225.324 169.064 225.475 169.618 225.778C170.172 226.077 170.603 226.531 170.911 227.142C171.218 227.748 171.372 228.515 171.372 229.443V236.375H169.696V229.557C169.696 228.7 169.474 228.032 169.029 227.554C168.584 227.071 167.973 226.83 167.196 226.83C166.661 226.83 166.183 226.946 165.762 227.178C165.345 227.41 165.016 227.748 164.774 228.193C164.533 228.638 164.412 229.178 164.412 229.812ZM177.555 236.602C176.645 236.602 175.843 236.373 175.147 235.913C174.451 235.449 173.906 234.796 173.513 233.953C173.12 233.106 172.924 232.104 172.924 230.949C172.924 229.803 173.12 228.809 173.513 227.966C173.906 227.123 174.453 226.472 175.154 226.013C175.855 225.554 176.664 225.324 177.583 225.324C178.293 225.324 178.854 225.442 179.266 225.679C179.683 225.911 180 226.176 180.218 226.474C180.44 226.768 180.613 227.009 180.736 227.199H180.878V221.83H182.555V236.375H180.935V234.699H180.736C180.613 234.898 180.438 235.149 180.211 235.452C179.984 235.75 179.659 236.018 179.238 236.254C178.816 236.486 178.255 236.602 177.555 236.602ZM177.782 235.097C178.454 235.097 179.022 234.921 179.486 234.571C179.95 234.216 180.303 233.726 180.545 233.101C180.786 232.471 180.907 231.744 180.907 230.92C180.907 230.106 180.788 229.393 180.552 228.783C180.315 228.167 179.965 227.689 179.501 227.348C179.037 227.002 178.464 226.83 177.782 226.83C177.072 226.83 176.48 227.012 176.006 227.376C175.537 227.736 175.185 228.226 174.948 228.847C174.716 229.462 174.6 230.153 174.6 230.92C174.6 231.697 174.718 232.402 174.955 233.037C175.197 233.667 175.552 234.169 176.02 234.543C176.494 234.912 177.081 235.097 177.782 235.097ZM105.26 260.602C104.351 260.602 103.548 260.373 102.852 259.913C102.156 259.449 101.611 258.796 101.218 257.953C100.825 257.106 100.629 256.104 100.629 254.949C100.629 253.803 100.825 252.809 101.218 251.966C101.611 251.123 102.158 250.472 102.859 250.013C103.56 249.554 104.369 249.324 105.288 249.324C105.998 249.324 106.559 249.442 106.971 249.679C107.388 249.911 107.705 250.176 107.923 250.474C108.146 250.768 108.318 251.009 108.441 251.199H108.583V245.83H110.26V260.375H108.64V258.699H108.441C108.318 258.898 108.143 259.149 107.916 259.452C107.689 259.75 107.364 260.018 106.943 260.254C106.521 260.486 105.96 260.602 105.26 260.602ZM105.487 259.097C106.159 259.097 106.727 258.921 107.191 258.571C107.655 258.216 108.008 257.726 108.25 257.101C108.491 256.471 108.612 255.744 108.612 254.92C108.612 254.106 108.494 253.393 108.257 252.783C108.02 252.167 107.67 251.689 107.206 251.348C106.742 251.002 106.169 250.83 105.487 250.83C104.777 250.83 104.185 251.012 103.711 251.376C103.243 251.736 102.89 252.226 102.653 252.847C102.421 253.462 102.305 254.153 102.305 254.92C102.305 255.697 102.423 256.402 102.66 257.037C102.902 257.667 103.257 258.169 103.726 258.543C104.199 258.912 104.786 259.097 105.487 259.097ZM117.136 260.602C116.085 260.602 115.178 260.37 114.416 259.906C113.658 259.438 113.074 258.784 112.662 257.946C112.254 257.103 112.051 256.123 112.051 255.006C112.051 253.888 112.254 252.903 112.662 252.051C113.074 251.194 113.646 250.527 114.38 250.048C115.119 249.565 115.981 249.324 116.966 249.324C117.534 249.324 118.095 249.419 118.649 249.608C119.203 249.797 119.707 250.105 120.162 250.531C120.616 250.953 120.978 251.511 121.248 252.207C121.518 252.903 121.653 253.76 121.653 254.778V255.489H113.244V254.04H119.949C119.949 253.424 119.825 252.875 119.579 252.392C119.338 251.909 118.992 251.528 118.542 251.249C118.097 250.969 117.572 250.83 116.966 250.83C116.298 250.83 115.72 250.995 115.233 251.327C114.75 251.653 114.378 252.08 114.118 252.605C113.857 253.131 113.727 253.694 113.727 254.295V255.261C113.727 256.085 113.869 256.784 114.153 257.357C114.442 257.925 114.842 258.358 115.353 258.656C115.865 258.95 116.459 259.097 117.136 259.097C117.576 259.097 117.974 259.035 118.329 258.912C118.689 258.784 118.999 258.595 119.26 258.344C119.52 258.088 119.721 257.771 119.863 257.392L121.483 257.847C121.312 258.396 121.026 258.879 120.623 259.295C120.221 259.707 119.724 260.029 119.132 260.261C118.54 260.489 117.875 260.602 117.136 260.602ZM131.791 249.466L127.757 260.375H126.053L122.018 249.466H123.837L126.848 258.159H126.962L129.973 249.466H131.791ZM137.187 260.602C136.136 260.602 135.229 260.37 134.467 259.906C133.709 259.438 133.124 258.784 132.712 257.946C132.305 257.103 132.102 256.123 132.102 255.006C132.102 253.888 132.305 252.903 132.712 252.051C133.124 251.194 133.697 250.527 134.431 250.048C135.17 249.565 136.032 249.324 137.016 249.324C137.585 249.324 138.146 249.419 138.7 249.608C139.254 249.797 139.758 250.105 140.212 250.531C140.667 250.953 141.029 251.511 141.299 252.207C141.569 252.903 141.704 253.76 141.704 254.778V255.489H133.295V254.04H139.999C139.999 253.424 139.876 252.875 139.63 252.392C139.389 251.909 139.043 251.528 138.593 251.249C138.148 250.969 137.622 250.83 137.016 250.83C136.349 250.83 135.771 250.995 135.283 251.327C134.8 251.653 134.429 252.08 134.168 252.605C133.908 253.131 133.778 253.694 133.778 254.295V255.261C133.778 256.085 133.92 256.784 134.204 257.357C134.493 257.925 134.893 258.358 135.404 258.656C135.916 258.95 136.51 259.097 137.187 259.097C137.627 259.097 138.025 259.035 138.38 258.912C138.74 258.784 139.05 258.595 139.31 258.344C139.571 258.088 139.772 257.771 139.914 257.392L141.533 257.847C141.363 258.396 141.076 258.879 140.674 259.295C140.272 259.707 139.774 260.029 139.183 260.261C138.591 260.489 137.925 260.602 137.187 260.602ZM144.93 245.83V260.375H143.254V245.83H144.93ZM151.431 260.602C150.447 260.602 149.583 260.368 148.839 259.899C148.101 259.43 147.523 258.775 147.106 257.932C146.694 257.089 146.488 256.104 146.488 254.977C146.488 253.841 146.694 252.849 147.106 252.001C147.523 251.154 148.101 250.496 148.839 250.027C149.583 249.558 150.447 249.324 151.431 249.324C152.416 249.324 153.278 249.558 154.017 250.027C154.76 250.496 155.338 251.154 155.75 252.001C156.166 252.849 156.375 253.841 156.375 254.977C156.375 256.104 156.166 257.089 155.75 257.932C155.338 258.775 154.76 259.43 154.017 259.899C153.278 260.368 152.416 260.602 151.431 260.602ZM151.431 259.097C152.18 259.097 152.795 258.905 153.278 258.521C153.761 258.138 154.119 257.634 154.351 257.009C154.583 256.384 154.699 255.706 154.699 254.977C154.699 254.248 154.583 253.569 154.351 252.939C154.119 252.309 153.761 251.8 153.278 251.412C152.795 251.024 152.18 250.83 151.431 250.83C150.683 250.83 150.068 251.024 149.585 251.412C149.102 251.8 148.744 252.309 148.512 252.939C148.28 253.569 148.164 254.248 148.164 254.977C148.164 255.706 148.28 256.384 148.512 257.009C148.744 257.634 149.102 258.138 149.585 258.521C150.068 258.905 150.683 259.097 151.431 259.097ZM157.933 264.466V249.466H159.553V251.199H159.751C159.875 251.009 160.045 250.768 160.263 250.474C160.485 250.176 160.803 249.911 161.215 249.679C161.631 249.442 162.195 249.324 162.905 249.324C163.823 249.324 164.633 249.554 165.334 250.013C166.035 250.472 166.581 251.123 166.974 251.966C167.367 252.809 167.564 253.803 167.564 254.949C167.564 256.104 167.367 257.106 166.974 257.953C166.581 258.796 166.037 259.449 165.341 259.913C164.645 260.373 163.842 260.602 162.933 260.602C162.233 260.602 161.671 260.486 161.25 260.254C160.829 260.018 160.504 259.75 160.277 259.452C160.05 259.149 159.875 258.898 159.751 258.699H159.609V264.466H157.933ZM159.581 254.92C159.581 255.744 159.702 256.471 159.943 257.101C160.185 257.726 160.537 258.216 161.001 258.571C161.465 258.921 162.034 259.097 162.706 259.097C163.407 259.097 163.991 258.912 164.46 258.543C164.934 258.169 165.289 257.667 165.526 257.037C165.767 256.402 165.888 255.697 165.888 254.92C165.888 254.153 165.769 253.462 165.533 252.847C165.301 252.226 164.948 251.736 164.474 251.376C164.006 251.012 163.416 250.83 162.706 250.83C162.024 250.83 161.451 251.002 160.987 251.348C160.523 251.689 160.173 252.167 159.936 252.783C159.699 253.393 159.581 254.106 159.581 254.92ZM173.695 260.602C172.643 260.602 171.737 260.37 170.974 259.906C170.217 259.438 169.632 258.784 169.22 257.946C168.813 257.103 168.609 256.123 168.609 255.006C168.609 253.888 168.813 252.903 169.22 252.051C169.632 251.194 170.205 250.527 170.939 250.048C171.678 249.565 172.539 249.324 173.524 249.324C174.092 249.324 174.653 249.419 175.207 249.608C175.761 249.797 176.266 250.105 176.72 250.531C177.175 250.953 177.537 251.511 177.807 252.207C178.077 252.903 178.212 253.76 178.212 254.778V255.489H169.803V254.04H176.507C176.507 253.424 176.384 252.875 176.138 252.392C175.896 251.909 175.551 251.528 175.101 251.249C174.656 250.969 174.13 250.83 173.524 250.83C172.857 250.83 172.279 250.995 171.791 251.327C171.308 251.653 170.937 252.08 170.676 252.605C170.416 253.131 170.286 253.694 170.286 254.295V255.261C170.286 256.085 170.428 256.784 170.712 257.357C171 257.925 171.401 258.358 171.912 258.656C172.423 258.95 173.018 259.097 173.695 259.097C174.135 259.097 174.533 259.035 174.888 258.912C175.248 258.784 175.558 258.595 175.818 258.344C176.079 258.088 176.28 257.771 176.422 257.392L178.041 257.847C177.871 258.396 177.584 258.879 177.182 259.295C176.779 259.707 176.282 260.029 175.69 260.261C175.099 260.489 174.433 260.602 173.695 260.602ZM179.761 260.375V249.466H181.381V251.114H181.494C181.693 250.574 182.053 250.136 182.574 249.8C183.095 249.464 183.682 249.295 184.335 249.295C184.458 249.295 184.612 249.298 184.797 249.303C184.982 249.307 185.121 249.314 185.216 249.324V251.028C185.159 251.014 185.029 250.993 184.825 250.964C184.626 250.931 184.416 250.915 184.193 250.915C183.663 250.915 183.189 251.026 182.773 251.249C182.361 251.466 182.034 251.769 181.793 252.158C181.556 252.541 181.438 252.979 181.438 253.472V260.375H179.761Z" fill="white"/>
<path d="M127.625 51.125C127.008 51.1247 126.413 51.3467 125.946 51.7503C125.48 52.1539 125.175 52.7119 125.088 53.3221L124.107 60.1938C122.662 60.6589 121.257 61.2414 119.907 61.9355L114.352 57.7715C113.859 57.4034 113.25 57.2251 112.636 57.2692C112.022 57.3133 111.444 57.5769 111.009 58.0117L103.762 65.2588C103.326 65.6946 103.061 66.2731 103.017 66.8881C102.973 67.5031 103.152 68.1134 103.521 68.6071L107.686 74.1575C106.991 75.5073 106.409 76.9117 105.944 78.3566L99.0721 79.3375C98.4619 79.4254 97.9039 79.7304 97.5003 80.1965C97.0967 80.6625 96.8747 81.2585 96.875 81.875V92.125C96.8747 92.7415 97.0967 93.3375 97.5003 93.8035C97.9039 94.2696 98.4619 94.5746 99.0721 94.6625L105.944 95.6434C106.409 97.0883 106.991 98.4927 107.686 99.8425L103.521 105.393C103.152 105.887 102.973 106.497 103.017 107.112C103.061 107.727 103.326 108.305 103.762 108.741L111.009 115.988C111.444 116.423 112.022 116.687 112.636 116.731C113.25 116.775 113.859 116.597 114.352 116.229L119.907 112.064C121.257 112.759 122.662 113.341 124.107 113.806L125.088 120.678C125.175 121.288 125.48 121.846 125.946 122.25C126.413 122.653 127.008 122.875 127.625 122.875H137.875C138.492 122.875 139.087 122.653 139.554 122.25C140.02 121.846 140.325 121.288 140.412 120.678L141.393 113.806C142.838 113.341 144.242 112.758 145.593 112.064L151.148 116.229C151.641 116.597 152.25 116.775 152.864 116.731C153.478 116.687 154.056 116.423 154.491 115.988L161.738 108.741C162.174 108.305 162.439 107.727 162.483 107.112C162.527 106.497 162.348 105.887 161.979 105.393L157.814 99.8425C158.509 98.4927 159.091 97.0883 159.556 95.6434L166.428 94.6625C167.038 94.5746 167.596 94.2696 168 93.8035C168.403 93.3375 168.625 92.7415 168.625 92.125V81.875C168.625 81.2585 168.403 80.6625 168 80.1965C167.596 79.7304 167.038 79.4254 166.428 79.3375L159.556 78.3566C159.091 76.9117 158.509 75.5073 157.814 74.1575L161.979 68.6071C162.348 68.1134 162.527 67.5031 162.483 66.8881C162.439 66.2731 162.174 65.6946 161.738 65.2588L154.491 58.0117C154.056 57.5769 153.478 57.3133 152.864 57.2692C152.25 57.2251 151.641 57.4034 151.148 57.7715L145.593 61.9355C144.242 61.2419 142.838 60.6594 141.393 60.1938L140.412 53.3221C140.325 52.7119 140.02 52.1539 139.554 51.7503C139.087 51.3467 138.492 51.1247 137.875 51.125H127.625ZM78.9375 56.25C75.5407 56.2541 72.2841 57.6053 69.8822 60.0072C67.4803 62.4091 66.1291 65.6657 66.125 69.0625V166.438C66.1291 169.834 67.4803 173.091 69.8822 175.493C72.2841 177.895 75.5407 179.246 78.9375 179.25H160.938V174.125H78.9375C76.8986 174.125 74.9433 173.315 73.5016 171.873C72.0599 170.432 71.25 168.476 71.25 166.438C71.25 164.399 72.0599 162.443 73.5016 161.002C74.9433 159.56 76.8986 158.75 78.9375 158.75H89.1875C89.8671 158.75 90.5189 158.48 90.9995 157.999C91.48 157.519 91.75 156.867 91.75 156.188V76.75H102V71.625H91.75V58.8125C91.75 58.1329 91.48 57.4811 90.9995 57.0005C90.5189 56.52 89.8671 56.25 89.1875 56.25H78.9375ZM129.847 56.25H135.653L136.554 62.5612C136.625 63.064 136.845 63.5343 137.185 63.9121C137.524 64.2899 137.968 64.5583 138.461 64.6832C140.582 65.2204 142.615 66.0616 144.496 67.1807C144.933 67.4388 145.435 67.5618 145.941 67.5342C146.447 67.5066 146.934 67.3296 147.339 67.0255L152.444 63.2068L156.543 67.3058L152.719 72.4058C152.415 72.8112 152.238 73.2976 152.211 73.8036C152.183 74.3096 152.306 74.8124 152.564 75.2485C153.684 77.1319 154.526 79.1663 155.067 81.2894C155.192 81.7802 155.46 82.2228 155.837 82.5613C156.214 82.8998 156.682 83.119 157.184 83.1913L163.5 84.0972V89.9028L157.189 90.8037C156.688 90.876 156.219 91.0952 155.842 91.4337C155.465 91.7722 155.197 92.2148 155.072 92.7056C154.53 94.829 153.685 96.8634 152.564 98.7465C152.306 99.1836 152.183 99.6877 152.212 100.195C152.24 100.702 152.419 101.189 152.724 101.594L156.543 106.694L152.444 110.793L147.344 106.969C146.939 106.665 146.452 106.488 145.946 106.461C145.44 106.433 144.938 106.556 144.501 106.814C142.619 107.934 140.584 108.775 138.461 109.312C137.968 109.437 137.524 109.705 137.185 110.083C136.845 110.461 136.625 110.931 136.554 111.434L135.653 117.75H129.847L128.946 111.439C128.875 110.936 128.655 110.466 128.315 110.088C127.976 109.71 127.532 109.442 127.039 109.317C124.918 108.78 122.885 107.938 121.004 106.819C120.567 106.561 120.065 106.438 119.559 106.466C119.053 106.493 118.566 106.67 118.161 106.974L113.056 110.793L108.957 106.694L112.781 101.594C113.085 101.189 113.262 100.702 113.289 100.196C113.317 99.6904 113.194 99.1875 112.936 98.7515C111.816 96.8681 110.974 94.8337 110.433 92.7106C110.308 92.2198 110.04 91.7772 109.663 91.4387C109.286 91.1002 108.818 90.881 108.316 90.8087L102 89.9028V84.0972L108.311 83.1963C108.812 83.124 109.281 82.9048 109.658 82.5663C110.035 82.2278 110.303 81.7852 110.428 81.2944C110.97 79.171 111.815 77.1366 112.936 75.2535C113.194 74.8164 113.317 74.3123 113.288 73.8053C113.26 73.2983 113.081 72.8111 112.776 72.4058L108.957 67.3058L113.056 63.2068L118.156 67.0305C118.561 67.3346 119.048 67.5116 119.554 67.5392C120.06 67.5668 120.562 67.4438 120.999 67.1857C122.881 66.0661 124.916 65.2249 127.039 64.6882C127.532 64.5634 127.976 64.2949 128.315 63.9171C128.655 63.5393 128.875 63.069 128.946 62.5662L129.847 56.25ZM78.9375 61.375H86.625V153.625H78.9375C76.1647 153.621 73.466 154.521 71.25 156.188V69.0625C71.25 67.0236 72.0599 65.0683 73.5016 63.6266C74.9433 62.1849 76.8986 61.375 78.9375 61.375ZM163.5 71.625V76.75H214.75V174.125H209.625V179.25H217.312C217.992 179.25 218.644 178.98 219.124 178.499C219.605 178.019 219.875 177.367 219.875 176.688V74.1875C219.875 73.5079 219.605 72.8561 219.124 72.3755C218.644 71.895 217.992 71.625 217.312 71.625H163.5ZM133.391 71.64C131.32 71.5536 129.252 71.887 127.313 72.6199C125.375 73.3529 123.604 74.4703 122.108 75.9051C120.612 77.3399 119.421 79.0624 118.608 80.9691C117.795 82.8757 117.375 84.9271 117.375 87C117.379 91.0765 119 94.9848 121.883 97.8673C124.765 100.75 128.674 102.371 132.75 102.375C136.766 102.365 140.618 100.785 143.484 97.9713C146.349 95.158 148 91.3353 148.084 87.3204C148.168 83.3056 146.677 79.4174 143.932 76.4871C141.186 73.5569 137.402 71.8172 133.391 71.64ZM132.75 76.75C134.777 76.75 136.759 77.3512 138.445 78.4774C140.13 79.6037 141.444 81.2046 142.22 83.0775C142.996 84.9504 143.199 87.0114 142.803 88.9997C142.408 90.988 141.431 92.8144 139.998 94.2478C138.564 95.6813 136.738 96.6576 134.75 97.0531C132.761 97.4485 130.7 97.2456 128.827 96.4698C126.955 95.694 125.354 94.3802 124.227 92.6946C123.101 91.009 122.5 89.0273 122.5 87C122.5 84.2815 123.58 81.6744 125.502 79.7522C127.424 77.8299 130.032 76.75 132.75 76.75ZM184 107.5C182.642 107.504 181.341 108.045 180.381 109.006C179.42 109.966 178.879 111.267 178.875 112.625V113.396C175.519 114.383 172.528 116.335 170.273 119.009C168.018 121.683 166.599 124.961 166.193 128.435C164.675 128.934 163.351 129.897 162.408 131.187C161.465 132.477 160.951 134.03 160.936 135.628C160.922 137.226 161.409 138.789 162.328 140.095C163.248 141.402 164.554 142.388 166.062 142.915V143.375C164.024 143.375 162.068 144.185 160.627 145.627C159.185 147.068 158.375 149.024 158.375 151.062C158.375 153.101 159.185 155.057 160.627 156.498C162.068 157.94 164.024 158.75 166.062 158.75H166.728C167.418 161.379 168.619 163.845 170.264 166.009C171.909 168.172 173.964 169.99 176.312 171.357V175.021L163.885 180.556C160.72 181.967 158.032 184.264 156.144 187.17C154.257 190.076 153.252 193.467 153.25 196.932V202.312C153.25 202.992 153.52 203.644 154.001 204.124C154.481 204.605 155.133 204.875 155.812 204.875H217.312C217.992 204.875 218.644 204.605 219.124 204.124C219.605 203.644 219.875 202.992 219.875 202.312V196.932C219.873 193.467 218.868 190.076 216.981 187.17C215.093 184.264 212.405 181.967 209.24 180.556L196.812 175.021V171.357C199.161 169.99 201.216 168.172 202.861 166.009C204.506 163.845 205.707 161.379 206.397 158.75H207.062C209.101 158.75 211.057 157.94 212.498 156.498C213.94 155.057 214.75 153.101 214.75 151.062C214.75 149.024 213.94 147.068 212.498 145.627C211.057 144.185 209.101 143.375 207.062 143.375V142.915C208.571 142.388 209.877 141.402 210.797 140.095C211.716 138.789 212.203 137.226 212.189 135.628C212.174 134.03 211.66 132.477 210.717 131.187C209.774 129.897 208.45 128.934 206.932 128.435C206.463 124.447 204.657 120.735 201.807 117.905C199.716 115.785 197.113 114.241 194.25 113.421V112.625C194.246 111.267 193.705 109.966 192.744 109.006C191.784 108.045 190.483 107.504 189.125 107.5H184ZM184 112.625H189.125V128H184V112.625ZM178.875 118.851V128H171.443C171.851 125.988 172.74 124.105 174.034 122.512C175.329 120.919 176.99 119.663 178.875 118.851ZM194.25 118.851C195.717 119.492 197.053 120.396 198.194 121.519C199.976 123.283 201.191 125.54 201.682 128H194.25V118.851ZM102 128V133.125H107.125V128H102ZM112.25 128V133.125H148.125V128H112.25ZM168.625 133.125H204.5C205.18 133.125 205.831 133.395 206.312 133.876C206.793 134.356 207.062 135.008 207.062 135.688C207.062 136.367 206.793 137.019 206.312 137.499C205.831 137.98 205.18 138.25 204.5 138.25H168.625C167.945 138.25 167.294 137.98 166.813 137.499C166.332 137.019 166.062 136.367 166.062 135.688C166.062 135.008 166.332 134.356 166.813 133.876C167.294 133.395 167.945 133.125 168.625 133.125ZM102 138.25V143.375H148.125V138.25H102ZM171.188 143.375H201.938V153.625C201.938 157.703 200.318 161.613 197.434 164.497C194.551 167.38 190.64 169 186.562 169C182.485 169 178.574 167.38 175.691 164.497C172.807 161.613 171.188 157.703 171.188 153.625V143.375ZM102 148.5V153.625H148.125V148.5H102ZM165.957 148.5C165.992 148.499 166.027 148.499 166.062 148.5V153.625C165.383 153.639 164.726 153.382 164.235 152.912C163.745 152.441 163.461 151.795 163.447 151.115C163.434 150.435 163.69 149.778 164.161 149.288C164.632 148.797 165.278 148.514 165.957 148.5ZM176.312 148.5V153.625H181.438V148.5H176.312ZM191.688 148.5V153.625H196.812V148.5H191.688ZM207.062 148.5C207.742 148.5 208.394 148.77 208.874 149.251C209.355 149.731 209.625 150.383 209.625 151.062C209.625 151.742 209.355 152.394 208.874 152.874C208.394 153.355 207.742 153.625 207.062 153.625V148.5ZM102 158.75V163.875H148.125V158.75H102ZM181.438 173.459C184.796 174.348 188.329 174.348 191.688 173.459V175.101L188.509 176.688H184.616L181.438 175.101V173.459ZM178.8 179.53L180.567 180.401L179.616 182.273L175.572 183.634L174.956 181.222L178.8 179.53ZM194.325 179.53L198.169 181.222L197.553 183.634L193.509 182.273L192.558 180.401L194.325 179.53ZM185.587 181.812H187.538L188.559 183.865L186.562 185.886L184.566 183.865L185.587 181.812ZM170.212 183.349L171.263 187.553C171.349 187.898 171.505 188.221 171.721 188.504C171.937 188.786 172.209 189.021 172.519 189.195C172.897 189.398 173.32 189.503 173.75 189.5C174.028 189.494 174.304 189.451 174.571 189.37L180.617 187.348L176.953 199.75H158.375V196.932C158.375 194.453 159.094 192.027 160.445 189.948C161.796 187.869 163.721 186.227 165.987 185.221L170.212 183.349ZM202.913 183.349L207.138 185.221C209.404 186.227 211.329 187.869 212.68 189.948C214.031 192.027 214.75 194.453 214.75 196.932V199.75H196.172L192.508 187.348L198.554 189.37C198.821 189.451 199.097 189.494 199.375 189.5C199.805 189.503 200.228 189.398 200.606 189.195C200.916 189.021 201.188 188.786 201.404 188.504C201.62 188.221 201.776 187.898 201.862 187.553L202.913 183.349ZM184.771 191.322C185.246 191.796 185.891 192.063 186.562 192.063C187.234 192.063 187.879 191.796 188.354 191.322L190.817 199.75H182.308L184.771 191.322Z" fill="white"/>
<defs>
<filter id="filter0_d_112_625" x="16.3603" y="0.58983" width="252.46" height="305.641" filterUnits="userSpaceOnUse" color-interpolation-filters="sRGB">
<feFlood flood-opacity="0" result="BackgroundImageFix"/>
<feColorMatrix in="SourceAlpha" type="matrix" values="0 0 0 0 0 0 0 0 0 0 0 0 0 0 0 0 0 0 127 0" result="hardAlpha"/>
<feOffset dy="9.41017"/>
<feGaussianBlur stdDeviation="9.41017"/>
<feComposite in2="hardAlpha" operator="out"/>
<feColorMatrix type="matrix" values="0 0 0 0 0.0666667 0 0 0 0 0.0666667 0 0 0 0 0.0666667 0 0 0 0.07 0"/>
<feBlend mode="normal" in2="BackgroundImageFix" result="effect1_dropShadow_112_625"/>
<feBlend mode="normal" in="SourceGraphic" in2="effect1_dropShadow_112_625" result="shape"/>
</filter>
<linearGradient id="paint0_linear_112_625" x1="142.59" y1="10" x2="142.59" y2="278" gradientUnits="userSpaceOnUse">
<stop stop-color="#7FE786" stop-opacity="0.2"/>
<stop offset="1" stop-color="#58A7FE" stop-opacity="0.61"/>
</linearGradient>
</defs>
</svg>
