<svg width="271" height="308" viewBox="0 0 271 308" fill="none" xmlns="http://www.w3.org/2000/svg">
<g filter="url(#filter0_d_112_624)">
<rect x="35.4622" y="10" width="216.538" height="269" rx="12" fill="url(#paint0_linear_112_624)" shape-rendering="crispEdges"/>
<rect x="36.4622" y="11" width="214.538" height="267" rx="11" stroke="white" stroke-width="2" shape-rendering="crispEdges"/>
</g>
<path d="M102.116 237.156V222.611H110.838V224.173H103.877V229.088H110.184V230.651H103.877V237.156H102.116ZM112.51 237.156V226.247H114.129V227.895H114.243C114.442 227.355 114.802 226.917 115.322 226.581C115.843 226.245 116.43 226.077 117.084 226.077C117.207 226.077 117.361 226.079 117.545 226.084C117.73 226.089 117.87 226.096 117.964 226.105V227.81C117.908 227.795 117.777 227.774 117.574 227.746C117.375 227.713 117.164 227.696 116.942 227.696C116.411 227.696 115.938 227.807 115.521 228.03C115.109 228.248 114.783 228.551 114.541 228.939C114.304 229.322 114.186 229.76 114.186 230.253V237.156H112.51ZM123.051 237.384C122.066 237.384 121.202 237.149 120.459 236.68C119.72 236.212 119.142 235.556 118.726 234.713C118.314 233.87 118.108 232.885 118.108 231.759C118.108 230.622 118.314 229.63 118.726 228.783C119.142 227.935 119.72 227.277 120.459 226.808C121.202 226.339 122.066 226.105 123.051 226.105C124.036 226.105 124.898 226.339 125.636 226.808C126.38 227.277 126.957 227.935 127.369 228.783C127.786 229.63 127.994 230.622 127.994 231.759C127.994 232.885 127.786 233.87 127.369 234.713C126.957 235.556 126.38 236.212 125.636 236.68C124.898 237.149 124.036 237.384 123.051 237.384ZM123.051 235.878C123.799 235.878 124.415 235.686 124.898 235.303C125.381 234.919 125.738 234.415 125.97 233.79C126.202 233.165 126.318 232.488 126.318 231.759C126.318 231.029 126.202 230.35 125.97 229.72C125.738 229.09 125.381 228.581 124.898 228.193C124.415 227.805 123.799 227.611 123.051 227.611C122.303 227.611 121.687 227.805 121.205 228.193C120.722 228.581 120.364 229.09 120.132 229.72C119.9 230.35 119.784 231.029 119.784 231.759C119.784 232.488 119.9 233.165 120.132 233.79C120.364 234.415 120.722 234.919 121.205 235.303C121.687 235.686 122.303 235.878 123.051 235.878ZM131.229 230.594V237.156H129.553V226.247H131.172V227.952H131.314C131.57 227.398 131.958 226.953 132.479 226.616C133 226.276 133.672 226.105 134.496 226.105C135.235 226.105 135.881 226.257 136.435 226.56C136.989 226.858 137.42 227.312 137.728 227.923C138.035 228.529 138.189 229.296 138.189 230.224V237.156H136.513V230.338C136.513 229.481 136.291 228.813 135.846 228.335C135.4 227.852 134.79 227.611 134.013 227.611C133.478 227.611 133 227.727 132.578 227.959C132.162 228.191 131.833 228.529 131.591 228.974C131.35 229.42 131.229 229.959 131.229 230.594ZM144.996 226.247V227.668H139.343V226.247H144.996ZM140.991 223.634H142.667V234.031C142.667 234.505 142.736 234.86 142.873 235.097C143.015 235.329 143.195 235.485 143.413 235.565C143.635 235.641 143.87 235.679 144.116 235.679C144.3 235.679 144.452 235.67 144.57 235.651C144.689 235.627 144.783 235.608 144.854 235.594L145.195 237.099C145.082 237.142 144.923 237.185 144.719 237.227C144.516 237.275 144.258 237.298 143.945 237.298C143.472 237.298 143.008 237.196 142.553 236.993C142.103 236.789 141.729 236.479 141.431 236.062C141.138 235.646 140.991 235.12 140.991 234.486V223.634ZM152.377 230.139V231.702H146.013V230.139H152.377ZM158.9 237.384C157.849 237.384 156.942 237.152 156.18 236.688C155.422 236.219 154.838 235.565 154.426 234.727C154.019 233.884 153.815 232.904 153.815 231.787C153.815 230.67 154.019 229.685 154.426 228.832C154.838 227.975 155.411 227.308 156.145 226.83C156.883 226.347 157.745 226.105 158.73 226.105C159.298 226.105 159.859 226.2 160.413 226.389C160.967 226.579 161.471 226.886 161.926 227.312C162.38 227.734 162.743 228.293 163.012 228.989C163.282 229.685 163.417 230.542 163.417 231.56V232.27H155.008V230.821H161.713C161.713 230.205 161.59 229.656 161.343 229.173C161.102 228.69 160.756 228.309 160.306 228.03C159.861 227.75 159.336 227.611 158.73 227.611C158.062 227.611 157.484 227.777 156.997 228.108C156.514 228.435 156.142 228.861 155.882 229.386C155.621 229.912 155.491 230.475 155.491 231.077V232.043C155.491 232.866 155.633 233.565 155.917 234.138C156.206 234.706 156.606 235.139 157.118 235.438C157.629 235.731 158.223 235.878 158.9 235.878C159.341 235.878 159.738 235.816 160.093 235.693C160.453 235.565 160.763 235.376 161.024 235.125C161.284 234.869 161.485 234.552 161.627 234.173L163.247 234.628C163.076 235.177 162.79 235.66 162.387 236.077C161.985 236.489 161.488 236.811 160.896 237.043C160.304 237.27 159.639 237.384 158.9 237.384ZM166.643 230.594V237.156H164.967V226.247H166.586V227.952H166.728C166.984 227.398 167.372 226.953 167.893 226.616C168.414 226.276 169.086 226.105 169.91 226.105C170.649 226.105 171.295 226.257 171.849 226.56C172.403 226.858 172.834 227.312 173.142 227.923C173.449 228.529 173.603 229.296 173.603 230.224V237.156H171.927V230.338C171.927 229.481 171.705 228.813 171.26 228.335C170.814 227.852 170.204 227.611 169.427 227.611C168.892 227.611 168.414 227.727 167.993 227.959C167.576 228.191 167.247 228.529 167.005 228.974C166.764 229.42 166.643 229.959 166.643 230.594ZM179.785 237.384C178.876 237.384 178.074 237.154 177.378 236.695C176.682 236.231 176.137 235.577 175.744 234.734C175.351 233.887 175.155 232.885 175.155 231.73C175.155 230.584 175.351 229.59 175.744 228.747C176.137 227.904 176.684 227.253 177.385 226.794C178.086 226.335 178.895 226.105 179.814 226.105C180.524 226.105 181.085 226.223 181.497 226.46C181.914 226.692 182.231 226.957 182.449 227.256C182.671 227.549 182.844 227.791 182.967 227.98H183.109V222.611H184.785V237.156H183.166V235.48H182.967C182.844 235.679 182.669 235.93 182.442 236.233C182.214 236.531 181.89 236.799 181.469 237.036C181.047 237.268 180.486 237.384 179.785 237.384ZM180.013 235.878C180.685 235.878 181.253 235.703 181.717 235.352C182.181 234.997 182.534 234.507 182.776 233.882C183.017 233.252 183.138 232.526 183.138 231.702C183.138 230.887 183.019 230.175 182.783 229.564C182.546 228.948 182.196 228.47 181.732 228.129C181.267 227.784 180.695 227.611 180.013 227.611C179.303 227.611 178.711 227.793 178.237 228.158C177.768 228.518 177.416 229.008 177.179 229.628C176.947 230.243 176.831 230.935 176.831 231.702C176.831 232.478 176.949 233.184 177.186 233.818C177.428 234.448 177.783 234.95 178.251 235.324C178.725 235.693 179.312 235.878 180.013 235.878ZM106.077 261.384C105.167 261.384 104.365 261.154 103.669 260.695C102.973 260.231 102.428 259.577 102.035 258.734C101.642 257.887 101.446 256.885 101.446 255.73C101.446 254.584 101.642 253.59 102.035 252.747C102.428 251.904 102.975 251.253 103.676 250.794C104.377 250.335 105.186 250.105 106.105 250.105C106.815 250.105 107.376 250.223 107.788 250.46C108.205 250.692 108.522 250.957 108.74 251.256C108.962 251.549 109.135 251.791 109.258 251.98H109.4V246.611H111.077V261.156H109.457V259.48H109.258C109.135 259.679 108.96 259.93 108.733 260.233C108.505 260.531 108.181 260.799 107.76 261.036C107.338 261.268 106.777 261.384 106.077 261.384ZM106.304 259.878C106.976 259.878 107.544 259.703 108.008 259.352C108.472 258.997 108.825 258.507 109.067 257.882C109.308 257.252 109.429 256.526 109.429 255.702C109.429 254.887 109.31 254.175 109.074 253.564C108.837 252.948 108.487 252.47 108.023 252.129C107.559 251.784 106.986 251.611 106.304 251.611C105.594 251.611 105.002 251.793 104.528 252.158C104.059 252.518 103.707 253.008 103.47 253.628C103.238 254.243 103.122 254.935 103.122 255.702C103.122 256.478 103.24 257.184 103.477 257.818C103.719 258.448 104.074 258.95 104.542 259.324C105.016 259.693 105.603 259.878 106.304 259.878ZM117.953 261.384C116.902 261.384 115.995 261.152 115.233 260.688C114.475 260.219 113.89 259.565 113.478 258.727C113.071 257.884 112.868 256.904 112.868 255.787C112.868 254.67 113.071 253.685 113.478 252.832C113.89 251.975 114.463 251.308 115.197 250.83C115.936 250.347 116.798 250.105 117.782 250.105C118.351 250.105 118.912 250.2 119.466 250.389C120.02 250.579 120.524 250.886 120.978 251.312C121.433 251.734 121.795 252.293 122.065 252.989C122.335 253.685 122.47 254.542 122.47 255.56V256.27H114.061V254.821H120.765C120.765 254.205 120.642 253.656 120.396 253.173C120.155 252.69 119.809 252.309 119.359 252.03C118.914 251.75 118.389 251.611 117.782 251.611C117.115 251.611 116.537 251.777 116.05 252.108C115.567 252.435 115.195 252.861 114.934 253.386C114.674 253.912 114.544 254.475 114.544 255.077V256.043C114.544 256.866 114.686 257.565 114.97 258.138C115.259 258.706 115.659 259.139 116.17 259.438C116.682 259.731 117.276 259.878 117.953 259.878C118.393 259.878 118.791 259.816 119.146 259.693C119.506 259.565 119.816 259.376 120.077 259.125C120.337 258.869 120.538 258.552 120.68 258.173L122.3 258.628C122.129 259.177 121.843 259.66 121.44 260.077C121.038 260.489 120.541 260.811 119.949 261.043C119.357 261.27 118.692 261.384 117.953 261.384ZM132.608 250.247L128.574 261.156H126.869L122.835 250.247H124.654L127.665 258.94H127.779L130.79 250.247H132.608ZM138.004 261.384C136.953 261.384 136.046 261.152 135.284 260.688C134.526 260.219 133.941 259.565 133.529 258.727C133.122 257.884 132.918 256.904 132.918 255.787C132.918 254.67 133.122 253.685 133.529 252.832C133.941 251.975 134.514 251.308 135.248 250.83C135.987 250.347 136.848 250.105 137.833 250.105C138.401 250.105 138.963 250.2 139.516 250.389C140.07 250.579 140.575 250.886 141.029 251.312C141.484 251.734 141.846 252.293 142.116 252.989C142.386 253.685 142.521 254.542 142.521 255.56V256.27H134.112V254.821H140.816C140.816 254.205 140.693 253.656 140.447 253.173C140.205 252.69 139.86 252.309 139.41 252.03C138.965 251.75 138.439 251.611 137.833 251.611C137.166 251.611 136.588 251.777 136.1 252.108C135.617 252.435 135.246 252.861 134.985 253.386C134.725 253.912 134.595 254.475 134.595 255.077V256.043C134.595 256.866 134.737 257.565 135.021 258.138C135.31 258.706 135.71 259.139 136.221 259.438C136.732 259.731 137.327 259.878 138.004 259.878C138.444 259.878 138.842 259.816 139.197 259.693C139.557 259.565 139.867 259.376 140.127 259.125C140.388 258.869 140.589 258.552 140.731 258.173L142.35 258.628C142.18 259.177 141.893 259.66 141.491 260.077C141.088 260.489 140.591 260.811 139.999 261.043C139.408 261.27 138.742 261.384 138.004 261.384ZM145.747 246.611V261.156H144.07V246.611H145.747ZM152.248 261.384C151.264 261.384 150.399 261.149 149.656 260.68C148.917 260.212 148.34 259.556 147.923 258.713C147.511 257.87 147.305 256.885 147.305 255.759C147.305 254.622 147.511 253.63 147.923 252.783C148.34 251.935 148.917 251.277 149.656 250.808C150.399 250.339 151.264 250.105 152.248 250.105C153.233 250.105 154.095 250.339 154.834 250.808C155.577 251.277 156.155 251.935 156.567 252.783C156.983 253.63 157.192 254.622 157.192 255.759C157.192 256.885 156.983 257.87 156.567 258.713C156.155 259.556 155.577 260.212 154.834 260.68C154.095 261.149 153.233 261.384 152.248 261.384ZM152.248 259.878C152.996 259.878 153.612 259.686 154.095 259.303C154.578 258.919 154.935 258.415 155.167 257.79C155.399 257.165 155.515 256.488 155.515 255.759C155.515 255.029 155.399 254.35 155.167 253.72C154.935 253.09 154.578 252.581 154.095 252.193C153.612 251.805 152.996 251.611 152.248 251.611C151.5 251.611 150.885 251.805 150.402 252.193C149.919 252.581 149.561 253.09 149.329 253.72C149.097 254.35 148.981 255.029 148.981 255.759C148.981 256.488 149.097 257.165 149.329 257.79C149.561 258.415 149.919 258.919 150.402 259.303C150.885 259.686 151.5 259.878 152.248 259.878ZM158.75 265.247V250.247H160.369V251.98H160.568C160.691 251.791 160.862 251.549 161.08 251.256C161.302 250.957 161.619 250.692 162.031 250.46C162.448 250.223 163.012 250.105 163.722 250.105C164.64 250.105 165.45 250.335 166.151 250.794C166.851 251.253 167.398 251.904 167.791 252.747C168.184 253.59 168.381 254.584 168.381 255.73C168.381 256.885 168.184 257.887 167.791 258.734C167.398 259.577 166.854 260.231 166.158 260.695C165.462 261.154 164.659 261.384 163.75 261.384C163.049 261.384 162.488 261.268 162.067 261.036C161.646 260.799 161.321 260.531 161.094 260.233C160.867 259.93 160.691 259.679 160.568 259.48H160.426V265.247H158.75ZM160.398 255.702C160.398 256.526 160.519 257.252 160.76 257.882C161.002 258.507 161.354 258.997 161.818 259.352C162.282 259.703 162.851 259.878 163.523 259.878C164.224 259.878 164.808 259.693 165.277 259.324C165.751 258.95 166.106 258.448 166.342 257.818C166.584 257.184 166.705 256.478 166.705 255.702C166.705 254.935 166.586 254.243 166.35 253.628C166.118 253.008 165.765 252.518 165.291 252.158C164.823 251.793 164.233 251.611 163.523 251.611C162.841 251.611 162.268 251.784 161.804 252.129C161.34 252.47 160.99 252.948 160.753 253.564C160.516 254.175 160.398 254.887 160.398 255.702ZM174.512 261.384C173.46 261.384 172.554 261.152 171.791 260.688C171.034 260.219 170.449 259.565 170.037 258.727C169.63 257.884 169.426 256.904 169.426 255.787C169.426 254.67 169.63 253.685 170.037 252.832C170.449 251.975 171.022 251.308 171.756 250.83C172.494 250.347 173.356 250.105 174.341 250.105C174.909 250.105 175.47 250.2 176.024 250.389C176.578 250.579 177.083 250.886 177.537 251.312C177.992 251.734 178.354 252.293 178.624 252.989C178.894 253.685 179.029 254.542 179.029 255.56V256.27H170.619V254.821H177.324C177.324 254.205 177.201 253.656 176.955 253.173C176.713 252.69 176.368 252.309 175.918 252.03C175.473 251.75 174.947 251.611 174.341 251.611C173.673 251.611 173.096 251.777 172.608 252.108C172.125 252.435 171.753 252.861 171.493 253.386C171.233 253.912 171.102 254.475 171.102 255.077V256.043C171.102 256.866 171.244 257.565 171.529 258.138C171.817 258.706 172.217 259.139 172.729 259.438C173.24 259.731 173.834 259.878 174.512 259.878C174.952 259.878 175.35 259.816 175.705 259.693C176.065 259.565 176.375 259.376 176.635 259.125C176.896 258.869 177.097 258.552 177.239 258.173L178.858 258.628C178.688 259.177 178.401 259.66 177.999 260.077C177.596 260.489 177.099 260.811 176.507 261.043C175.915 261.27 175.25 261.384 174.512 261.384ZM180.578 261.156V250.247H182.198V251.895H182.311C182.51 251.355 182.87 250.917 183.391 250.581C183.912 250.245 184.499 250.077 185.152 250.077C185.275 250.077 185.429 250.079 185.614 250.084C185.798 250.089 185.938 250.096 186.033 250.105V251.81C185.976 251.795 185.846 251.774 185.642 251.746C185.443 251.713 185.233 251.696 185.01 251.696C184.48 251.696 184.006 251.807 183.59 252.03C183.178 252.248 182.851 252.551 182.61 252.939C182.373 253.322 182.254 253.76 182.254 254.253V261.156H180.578Z" fill="white"/>
<path d="M177.942 48.1005C176.373 48.011 174.651 48.4718 172.939 49.4538L97.4554 92.8525C95.1807 94.1661 93.1416 96.1996 91.5131 98.698C91.022 99.4192 90.5837 100.191 90.1701 101.093C88.9035 103.694 88.2314 106.349 88.2314 108.744L88.4637 195.235C88.4895 198.351 89.6515 200.744 91.7453 201.981L105.856 210.12C105.882 210.146 105.911 210.175 105.962 210.201C106.867 210.716 107.901 210.97 108.987 210.97C110.434 210.97 111.983 210.509 113.586 209.607L189.069 166.183C194.265 163.195 198.293 156.216 198.293 150.292L198.061 77.3231L198.036 63.8513C198.036 60.6832 196.874 58.2856 194.754 57.0751C194.728 57.0751 194.729 57.0757 194.703 57.0499L194.678 57.0248L180.562 48.8602C179.767 48.4062 178.883 48.1543 177.942 48.1005ZM176.993 51.3553C177.739 51.2555 178.406 51.3581 178.936 51.6672L188.317 57.1002C188.007 57.229 187.697 57.4135 187.413 57.5681C187.336 57.6196 187.233 57.6423 187.156 57.6938C187.13 57.6938 187.131 57.7184 187.105 57.7441L111.673 101.093C109.398 102.406 107.359 104.444 105.73 106.968C103.921 109.75 102.807 112.812 102.575 115.465C102.497 115.954 102.449 116.444 102.449 116.934V116.984V117.014L102.474 127.624L91.5383 121.285L91.5131 108.769C91.5131 108.254 91.5618 107.716 91.6393 107.149C91.8461 105.63 92.3639 104.031 93.1135 102.511C93.4754 101.739 93.8359 101.097 94.2495 100.479C95.5678 98.4183 97.3025 96.6898 99.0861 95.6596L174.564 52.2608C175.417 51.7586 176.246 51.4551 176.993 51.3553ZM191.185 59.5753C191.546 59.5238 191.883 59.5238 192.219 59.5753C192.349 59.601 192.454 59.6501 192.558 59.6759C192.739 59.7274 192.918 59.7797 193.073 59.857L193.123 59.8821H193.153C194.213 60.5003 194.779 61.9195 194.779 63.8513L194.804 76.3925L181.829 83.8629L179.527 79.6674C179.32 79.281 178.961 78.9957 178.548 78.8927C178.134 78.7639 177.668 78.8426 177.306 79.0486L166.734 85.1255C166.398 85.3316 166.141 85.6397 166.012 86.026L163.195 94.6031L105.73 127.649L105.705 116.959C105.705 116.65 105.704 116.292 105.755 115.983V115.877C105.962 113.611 106.917 111.063 108.416 108.719C109.76 106.658 111.469 104.93 113.278 103.9L188.756 60.4757C189.325 60.1409 189.87 59.9361 190.387 59.7815C190.645 59.7043 190.926 59.601 191.185 59.5753ZM194.83 80.1302L195.037 150.342C195.063 155.055 191.574 161.057 187.438 163.426L111.96 206.85C110.254 207.829 108.704 208.036 107.618 207.469C107.593 207.469 107.589 207.444 107.563 207.444L107.487 207.394C106.479 206.75 105.912 205.381 105.912 203.475L105.705 131.412L165.365 97.1033C165.701 96.8973 165.958 96.5892 166.087 96.2029L168.905 87.6257L177.513 82.6807L179.815 86.8762C180.022 87.2625 180.381 87.5479 180.794 87.6509C181.208 87.7797 181.674 87.701 182.036 87.4949L194.83 80.1302ZM186.974 91.1974C186.696 91.1974 186.417 91.2671 186.171 91.4087L111.854 134.164C111.363 134.447 111.052 134.99 111.052 135.557L111.107 168.241C111.081 168.807 111.388 169.351 111.905 169.634C112.163 169.789 112.423 169.84 112.708 169.84C112.992 169.84 113.278 169.763 113.51 169.634L187.827 126.879C188.318 126.596 188.63 126.052 188.63 125.486L188.574 92.8022C188.574 92.2356 188.268 91.692 187.777 91.4087C187.531 91.2671 187.252 91.1974 186.974 91.1974ZM141.455 92.5959C140.715 92.6378 139.94 92.8775 139.178 93.3153C136.593 94.8092 134.604 98.2865 134.604 101.249C134.604 102.974 135.302 104.391 136.542 105.087C137.085 105.396 137.678 105.55 138.325 105.55C139.126 105.55 139.981 105.32 140.834 104.83C143.445 103.336 145.458 99.8339 145.458 96.8719C145.433 95.1462 144.735 93.7542 143.52 93.0588C142.899 92.711 142.195 92.5541 141.455 92.5959ZM185.343 95.5841L185.399 124.56L114.313 165.459L114.257 136.483L185.343 95.5841ZM141.505 95.8407C141.696 95.802 141.842 95.8143 141.919 95.8658C142.074 95.9431 142.227 96.3047 142.227 96.8971C142.227 98.7 140.806 101.121 139.203 102.048C138.686 102.357 138.298 102.382 138.143 102.305C138.039 102.253 137.835 101.944 137.835 101.249C137.835 99.4198 139.232 97.0238 140.809 96.1224C141.08 95.9678 141.315 95.8793 141.505 95.8407ZM129.176 99.6538C128.436 99.6957 127.662 99.9353 126.899 100.373C124.314 101.867 122.3 105.344 122.3 108.332C122.3 110.057 122.998 111.449 124.239 112.145C124.782 112.454 125.4 112.608 126.046 112.608C126.848 112.608 127.728 112.352 128.555 111.888C131.166 110.394 133.18 106.892 133.18 103.93C133.154 102.204 132.456 100.812 131.241 100.117C130.621 99.7689 129.916 99.612 129.176 99.6538ZM129.227 102.899C129.418 102.86 129.563 102.872 129.641 102.924C129.796 103.001 129.949 103.363 129.949 103.955C129.949 105.758 128.527 108.179 126.925 109.106C126.382 109.415 125.968 109.44 125.839 109.363C125.684 109.286 125.531 108.924 125.531 108.332C125.531 106.503 126.927 104.107 128.53 103.18C128.802 103.026 129.036 102.937 129.227 102.899ZM116.898 106.737C116.161 106.779 115.384 107.018 114.621 107.456C112.036 108.95 110.022 112.427 110.022 115.415C110.022 117.14 110.72 118.532 111.96 119.228C112.503 119.537 113.122 119.691 113.768 119.691C114.569 119.691 115.45 119.435 116.277 118.971C118.862 117.477 120.876 114.001 120.876 111.013C120.85 109.287 120.153 107.895 118.938 107.2C118.33 106.852 117.635 106.695 116.898 106.737ZM117.155 109.931C117.233 109.931 117.311 109.956 117.337 109.982C117.492 110.059 117.645 110.42 117.645 111.013C117.645 112.842 116.249 115.263 114.646 116.164C114.103 116.473 113.716 116.498 113.561 116.421C113.406 116.343 113.253 115.982 113.253 115.389C113.253 113.561 114.649 111.165 116.252 110.238C116.639 110.032 116.949 109.931 117.155 109.931ZM91.5383 124.998L102.499 131.356L102.706 203.475C102.706 203.913 102.781 204.275 102.832 204.687L93.4266 199.279C92.3409 198.61 91.7459 197.166 91.7201 195.235L91.5383 124.998ZM188.009 132.539C187.731 132.539 187.452 132.608 187.206 132.75L166.577 144.622C166.086 144.905 165.779 145.449 165.779 146.016L165.855 166.128C165.855 166.694 166.167 167.238 166.658 167.521C166.916 167.676 167.171 167.728 167.456 167.728C167.74 167.728 168.026 167.65 168.258 167.521L188.887 155.649C189.378 155.366 189.69 154.822 189.69 154.256L189.609 134.138C189.609 133.572 189.298 133.033 188.807 132.75C188.561 132.608 188.287 132.539 188.009 132.539ZM186.403 136.92L186.459 153.33L169.061 163.346L169.011 146.941L186.403 136.92ZM160.66 148.249C160.382 148.249 160.103 148.319 159.857 148.46L139.228 160.333C138.737 160.616 138.431 161.159 138.431 161.726L138.506 181.843C138.506 182.41 138.818 182.948 139.309 183.232C139.568 183.386 139.822 183.438 140.107 183.438C140.391 183.438 140.677 183.361 140.91 183.232L161.539 171.36C162.03 171.076 162.341 170.533 162.341 169.966L162.261 149.854C162.286 149.287 161.975 148.77 161.458 148.46C161.212 148.319 160.938 148.249 160.66 148.249ZM159.055 152.636L159.11 169.041L141.712 179.061L141.662 162.652L159.055 152.636ZM133.337 163.985C133.059 163.985 132.779 164.054 132.534 164.196L111.905 176.073C111.414 176.357 111.107 176.895 111.107 177.462L111.183 197.579C111.183 198.146 111.494 198.684 111.986 198.967C112.244 199.122 112.504 199.174 112.788 199.174C113.073 199.174 113.353 199.096 113.586 198.967L134.215 187.095C134.706 186.812 135.018 186.273 135.018 185.707L134.937 165.59C134.937 165.023 134.63 164.479 134.139 164.196C133.894 164.054 133.614 163.985 133.337 163.985ZM131.731 168.371L131.787 184.776L114.389 194.797L114.338 178.392L131.731 168.371Z" fill="white"/>
<defs>
<filter id="filter0_d_112_624" x="16.6418" y="0.58983" width="254.179" height="306.641" filterUnits="userSpaceOnUse" color-interpolation-filters="sRGB">
<feFlood flood-opacity="0" result="BackgroundImageFix"/>
<feColorMatrix in="SourceAlpha" type="matrix" values="0 0 0 0 0 0 0 0 0 0 0 0 0 0 0 0 0 0 127 0" result="hardAlpha"/>
<feOffset dy="9.41017"/>
<feGaussianBlur stdDeviation="9.41017"/>
<feComposite in2="hardAlpha" operator="out"/>
<feColorMatrix type="matrix" values="0 0 0 0 0.0666667 0 0 0 0 0.0666667 0 0 0 0 0.0666667 0 0 0 0.07 0"/>
<feBlend mode="normal" in2="BackgroundImageFix" result="effect1_dropShadow_112_624"/>
<feBlend mode="normal" in="SourceGraphic" in2="effect1_dropShadow_112_624" result="shape"/>
</filter>
<linearGradient id="paint0_linear_112_624" x1="143.731" y1="10" x2="143.731" y2="279" gradientUnits="userSpaceOnUse">
<stop stop-color="#7FE786" stop-opacity="0.2"/>
<stop offset="1" stop-color="#58A7FE" stop-opacity="0.61"/>
</linearGradient>
</defs>
</svg>
