<svg width="125" height="125" viewBox="0 0 125 125" fill="none" xmlns="http://www.w3.org/2000/svg">
<path d="M62.5 0C27.983 0 0 27.983 0 62.5C0 97.017 27.983 125 62.5 125C97.017 125 125 97.017 125 62.5C125 27.983 97.017 0 62.5 0ZM62.5 11.3636C90.7415 11.3636 113.636 34.2585 113.636 62.5C113.636 85.9054 97.8941 105.595 76.4327 111.667C76.169 111.123 75.9882 110.528 76.0054 109.852C76.0935 106.418 76.0054 98.4022 76.0054 95.459C76.0054 90.4078 72.8094 86.8253 72.8094 86.8253C72.8094 86.8253 97.8782 87.1082 97.8782 60.3582C97.8782 50.0372 92.4849 44.6611 92.4849 44.6611C92.4849 44.6611 95.3181 33.6428 91.5028 28.9695C87.2272 28.5064 79.5694 33.0534 76.2995 35.1784C76.2995 35.1784 71.1193 33.0533 62.5 33.0533C53.8807 33.0533 48.7005 35.1784 48.7005 35.1784C45.4306 33.0534 37.7728 28.5093 33.4972 28.9695C29.6847 33.6428 32.5151 44.6611 32.5151 44.6611C32.5151 44.6611 27.1218 50.0316 27.1218 60.3527C27.1218 87.1027 52.1906 86.8253 52.1906 86.8253C52.1906 86.8253 49.3362 90.0747 49.0501 94.7321C47.3748 95.3228 45.0913 96.0194 42.9133 96.0194C37.6576 96.0194 33.6647 90.9146 32.1988 88.5509C30.7556 86.2185 27.7969 84.2618 25.0355 84.2618C23.2173 84.2618 22.3278 85.1752 22.3278 86.2149C22.3278 87.2547 24.8796 87.9786 26.5614 89.9048C30.1068 93.9673 30.0411 103.105 42.6747 103.105C44.1684 103.105 46.8524 102.761 48.9946 102.467C48.9827 105.335 48.9494 108.086 48.9946 109.847C49.0112 110.525 48.8271 111.122 48.5618 111.667C27.103 105.593 11.3636 85.9035 11.3636 62.5C11.3636 34.2585 34.2585 11.3636 62.5 11.3636Z" fill="white"/>
</svg>
