<svg width="52" height="52" viewBox="0 0 52 52" fill="none" xmlns="http://www.w3.org/2000/svg">
<path d="M6.5 25.9997L10.8333 21.6664M10.8333 21.6664L26 6.49973L41.1667 21.6664M10.8333 21.6664V43.3331C10.8333 44.5297 11.8034 45.4997 13 45.4997H19.5M41.1667 21.6664L45.5 25.9997M41.1667 21.6664V43.3331C41.1667 44.5297 40.1966 45.4997 39 45.4997H32.5M19.5 45.4997C20.6966 45.4997 21.6667 44.5297 21.6667 43.3331V34.6664C21.6667 33.4698 22.6367 32.4997 23.8333 32.4997H28.1667C29.3633 32.4997 30.3333 33.4698 30.3333 34.6664V43.3331C30.3333 44.5297 31.3034 45.4997 32.5 45.4997M19.5 45.4997H32.5" stroke="white" stroke-width="2.90141" stroke-linecap="round" stroke-linejoin="round"/>
</svg>
