<svg width="135" height="50" viewBox="0 0 135 50" fill="none" xmlns="http://www.w3.org/2000/svg">
<g clip-path="url(#clip0_108_450)">
<g filter="url(#filter0_d_108_450)">
<rect width="135" height="50" rx="12" fill="white"/>
</g>
<path d="M58.7227 33H55.7578V15.2695H58.7227V22.582H58.9219C59.3047 21.7695 59.8633 21.1445 60.5977 20.707C61.332 20.2617 62.1797 20.0391 63.1406 20.0391C64.5547 20.0391 65.6406 20.5039 66.3984 21.4336C67.1562 22.3555 67.5352 23.6367 67.5352 25.2773V33H64.5352V25.582C64.5352 23.5664 63.6641 22.5586 61.9219 22.5586C60.9531 22.5586 60.1758 22.8945 59.5898 23.5664C59.0117 24.2383 58.7227 25.125 58.7227 26.2266V33ZM68.7844 26.6602C68.7844 24.6992 69.3586 23.1094 70.507 21.8906C71.6711 20.6562 73.1828 20.0391 75.0422 20.0391C76.9094 20.0391 78.4133 20.6562 79.5539 21.8906C80.7102 23.1172 81.2883 24.707 81.2883 26.6602C81.2883 28.6055 80.7102 30.1914 79.5539 31.418C78.4367 32.6289 76.9328 33.2344 75.0422 33.2344C73.1594 33.2344 71.6477 32.6289 70.507 31.418C69.3586 30.1992 68.7844 28.6133 68.7844 26.6602ZM78.2414 26.6133C78.2414 25.3711 77.9523 24.3867 77.3742 23.6602C76.8039 22.9258 76.0188 22.5586 75.0188 22.5586C74.0266 22.5586 73.2453 22.9258 72.675 23.6602C72.0969 24.4023 71.8078 25.3945 71.8078 26.6367C71.8078 27.8789 72.0852 28.8711 72.6398 29.6133C73.2102 30.3477 74.0031 30.7148 75.0188 30.7148C76.0188 30.7148 76.8039 30.3477 77.3742 29.6133C77.9523 28.8789 78.2414 27.8789 78.2414 26.6133ZM85.6664 33H82.7016V20.2852H85.2914L85.643 22.6289H85.8656C86.6391 20.9023 87.893 20.0391 89.6273 20.0391C90.518 20.0391 91.2758 20.2734 91.9008 20.7422C92.5336 21.2031 93.0023 21.8555 93.307 22.6992H93.518C93.9008 21.832 94.4438 21.1719 95.1469 20.7188C95.8578 20.2656 96.6742 20.0391 97.5961 20.0391C98.9242 20.0391 99.9516 20.5078 100.678 21.4453C101.413 22.3828 101.78 23.668 101.78 25.3008V33H98.8031V25.6055C98.8031 23.5742 98.0258 22.5586 96.4711 22.5586C95.5805 22.5586 94.9008 22.8672 94.432 23.4844C93.9711 24.1016 93.7406 24.9531 93.7406 26.0391V33H90.7406V25.5586C90.7406 23.5586 89.9711 22.5586 88.432 22.5586C87.5883 22.5586 86.9164 22.875 86.4164 23.5078C85.9164 24.1328 85.6664 24.9609 85.6664 25.9922V33ZM109.205 33.2344C107.338 33.2344 105.841 32.6367 104.716 31.4414C103.584 30.2383 103.017 28.6445 103.017 26.6602C103.017 24.6523 103.576 23.0547 104.693 21.8672C105.818 20.6484 107.306 20.0391 109.158 20.0391C110.963 20.0391 112.38 20.5664 113.412 21.6211C114.466 22.6523 114.994 24.0469 114.994 25.8047C114.994 26.2578 114.951 26.7617 114.865 27.3164H105.994C105.986 28.4648 106.259 29.3516 106.814 29.9766C107.377 30.6016 108.166 30.9141 109.181 30.9141C109.923 30.9141 110.56 30.7422 111.091 30.3984C111.623 30.0547 111.963 29.6094 112.111 29.0625H115.064C114.853 30.2969 114.205 31.3047 113.119 32.0859C112.072 32.8516 110.767 33.2344 109.205 33.2344ZM106.017 25.2773H112.017C112.002 24.3477 111.736 23.6289 111.22 23.1211C110.713 22.6055 110.002 22.3477 109.088 22.3477C108.189 22.3477 107.463 22.6172 106.908 23.1562C106.353 23.6875 106.056 24.3945 106.017 25.2773Z" fill="black"/>
<path d="M15.3521 24.4083L18.2535 21.5069M18.2535 21.5069L28.4084 11.3519L38.5633 21.5069M18.2535 21.5069V36.0139C18.2535 36.8151 18.903 37.4646 19.7042 37.4646H24.0563M38.5633 21.5069L41.4647 24.4083M38.5633 21.5069V36.0139C38.5633 36.8151 37.9138 37.4646 37.1126 37.4646H32.7605M24.0563 37.4646C24.8575 37.4646 25.507 36.8151 25.507 36.0139V30.2111C25.507 29.4099 26.1565 28.7604 26.9577 28.7604H29.8591C30.6603 28.7604 31.3098 29.4099 31.3098 30.2111V36.0139C31.3098 36.8151 31.9593 37.4646 32.7605 37.4646M24.0563 37.4646H32.7605" stroke="black" stroke-width="2.90141" stroke-linecap="round" stroke-linejoin="round"/>
</g>
<defs>
<filter id="filter0_d_108_450" x="-18.8203" y="-9.41017" width="172.641" height="87.6407" filterUnits="userSpaceOnUse" color-interpolation-filters="sRGB">
<feFlood flood-opacity="0" result="BackgroundImageFix"/>
<feColorMatrix in="SourceAlpha" type="matrix" values="0 0 0 0 0 0 0 0 0 0 0 0 0 0 0 0 0 0 127 0" result="hardAlpha"/>
<feOffset dy="9.41017"/>
<feGaussianBlur stdDeviation="9.41017"/>
<feComposite in2="hardAlpha" operator="out"/>
<feColorMatrix type="matrix" values="0 0 0 0 0.0666667 0 0 0 0 0.0666667 0 0 0 0 0.0666667 0 0 0 0.07 0"/>
<feBlend mode="normal" in2="BackgroundImageFix" result="effect1_dropShadow_108_450"/>
<feBlend mode="normal" in="SourceGraphic" in2="effect1_dropShadow_108_450" result="shape"/>
</filter>
<clipPath id="clip0_108_450">
<rect width="135" height="50" fill="white"/>
</clipPath>
</defs>
</svg>
