<svg width="112" height="35" viewBox="0 0 112 35" fill="none" xmlns="http://www.w3.org/2000/svg">
<g clip-path="url(#clip0_111_620)">
<path d="M6.3501 17.3998L9.2501 14.4998M9.2501 14.4998L19.4001 4.34982L29.5501 14.4998M9.2501 14.4998V28.9998C9.2501 29.8006 9.89928 30.4498 10.7001 30.4498H15.0501M29.5501 14.4998L32.4501 17.3998M29.5501 14.4998V28.9998C29.5501 29.8006 28.9009 30.4498 28.1001 30.4498H23.7501M15.0501 30.4498C15.8509 30.4498 16.5001 29.8006 16.5001 28.9998V23.1998C16.5001 22.399 17.1493 21.7498 17.9501 21.7498H20.8501C21.6509 21.7498 22.3001 22.399 22.3001 23.1998V28.9998C22.3001 29.8006 22.9493 30.4498 23.7501 30.4498M15.0501 30.4498H23.7501" stroke="white" stroke-width="3.36563" stroke-linecap="round" stroke-linejoin="round"/>
<path d="M48.7227 28H45.7578V10.2695H48.7227V17.582H48.9219C49.3047 16.7695 49.8633 16.1445 50.5977 15.707C51.332 15.2617 52.1797 15.0391 53.1406 15.0391C54.5547 15.0391 55.6406 15.5039 56.3984 16.4336C57.1562 17.3555 57.5352 18.6367 57.5352 20.2773V28H54.5352V20.582C54.5352 18.5664 53.6641 17.5586 51.9219 17.5586C50.9531 17.5586 50.1758 17.8945 49.5898 18.5664C49.0117 19.2383 48.7227 20.125 48.7227 21.2266V28ZM58.7844 21.6602C58.7844 19.6992 59.3586 18.1094 60.507 16.8906C61.6711 15.6562 63.1828 15.0391 65.0422 15.0391C66.9094 15.0391 68.4133 15.6562 69.5539 16.8906C70.7102 18.1172 71.2883 19.707 71.2883 21.6602C71.2883 23.6055 70.7102 25.1914 69.5539 26.418C68.4367 27.6289 66.9328 28.2344 65.0422 28.2344C63.1594 28.2344 61.6477 27.6289 60.507 26.418C59.3586 25.1992 58.7844 23.6133 58.7844 21.6602ZM68.2414 21.6133C68.2414 20.3711 67.9523 19.3867 67.3742 18.6602C66.8039 17.9258 66.0188 17.5586 65.0188 17.5586C64.0266 17.5586 63.2453 17.9258 62.675 18.6602C62.0969 19.4023 61.8078 20.3945 61.8078 21.6367C61.8078 22.8789 62.0852 23.8711 62.6398 24.6133C63.2102 25.3477 64.0031 25.7148 65.0188 25.7148C66.0188 25.7148 66.8039 25.3477 67.3742 24.6133C67.9523 23.8789 68.2414 22.8789 68.2414 21.6133ZM75.6664 28H72.7016V15.2852H75.2914L75.643 17.6289H75.8656C76.6391 15.9023 77.893 15.0391 79.6273 15.0391C80.518 15.0391 81.2758 15.2734 81.9008 15.7422C82.5336 16.2031 83.0023 16.8555 83.307 17.6992H83.518C83.9008 16.832 84.4438 16.1719 85.1469 15.7188C85.8578 15.2656 86.6742 15.0391 87.5961 15.0391C88.9242 15.0391 89.9516 15.5078 90.6781 16.4453C91.4125 17.3828 91.7797 18.668 91.7797 20.3008V28H88.8031V20.6055C88.8031 18.5742 88.0258 17.5586 86.4711 17.5586C85.5805 17.5586 84.9008 17.8672 84.432 18.4844C83.9711 19.1016 83.7406 19.9531 83.7406 21.0391V28H80.7406V20.5586C80.7406 18.5586 79.9711 17.5586 78.432 17.5586C77.5883 17.5586 76.9164 17.875 76.4164 18.5078C75.9164 19.1328 75.6664 19.9609 75.6664 20.9922V28ZM99.2047 28.2344C97.3375 28.2344 95.8414 27.6367 94.7164 26.4414C93.5836 25.2383 93.0172 23.6445 93.0172 21.6602C93.0172 19.6523 93.5758 18.0547 94.693 16.8672C95.818 15.6484 97.3063 15.0391 99.1578 15.0391C100.963 15.0391 102.38 15.5664 103.412 16.6211C104.466 17.6523 104.994 19.0469 104.994 20.8047C104.994 21.2578 104.951 21.7617 104.865 22.3164H95.9938C95.9859 23.4648 96.2594 24.3516 96.8141 24.9766C97.3766 25.6016 98.1656 25.9141 99.1813 25.9141C99.9234 25.9141 100.56 25.7422 101.091 25.3984C101.623 25.0547 101.963 24.6094 102.111 24.0625H105.064C104.853 25.2969 104.205 26.3047 103.119 27.0859C102.072 27.8516 100.767 28.2344 99.2047 28.2344ZM96.0172 20.2773H102.017C102.002 19.3477 101.736 18.6289 101.22 18.1211C100.713 17.6055 100.002 17.3477 99.0875 17.3477C98.1891 17.3477 97.4625 17.6172 96.9078 18.1562C96.3531 18.6875 96.0563 19.3945 96.0172 20.2773Z" fill="white"/>
</g>
<defs>
<clipPath id="clip0_111_620">
<rect width="112" height="35" fill="white"/>
</clipPath>
</defs>
</svg>
